# xmcd
#
# Track frame offsets: 
#        150
#        21712
#        39600
#        56572
#        73735
#        86896
#        105296
#        121383
#        137596
#        151837
#        171940
#        190932
#        208437
#        226920
#        243993
#
# Disc length: 3478 seconds
#
# Revision: 2
# Processed by: cddbd v1.5.1PL0 Copyright (c) Steve Scherf et al.
# Submitted via: ExactAudioCopy v0.95b1
#
DISCID=d60d940f
DTITLE=Bruno and Marrone - Inevitável
DYEAR=2003
DGENRE=Country
TTITLE0=Será
TTITLE1=Vai Dar Namoro
TTITLE2=Deixa
TTITLE3=É Você Que Eu Amo
TTITLE4=Pra Lá Que Eu Vou
TTITLE5=Sonhos Perdidos
TTITLE6=Trânsito Parado
TTITLE7=Doce Desejo
TTITLE8=Apaziguar
TTITLE9=Se Não Tivesse Ido
TTITLE10=Você Não Me Ensinou A Te Esquecer
TTITLE11=Inevitável
TTITLE12=Coração de Pedra
TTITLE13=Foi Engano
TTITLE14=Ligação Urbana (Ao Vivo)
EXTD=YEAR: 2003 ID3G: 2
EXTT0=
EXTT1=
EXTT2=
EXTT3=
EXTT4=
EXTT5=
EXTT6=
EXTT7=
EXTT8=
EXTT9=
EXTT10=
EXTT11=
EXTT12=
EXTT13=
EXTT14=
PLAYORDER=
